<svg xmlns="http://www.w3.org/2000/svg" viewBox="0 0 1040 400"><defs><clipPath id="clip-path"><path d="M376.25 263.08a1.64 1.64 0 10-2.32 0 1.64 1.64 0 002.32 0zm-3.55 12.51v-9.45a4.67 4.67 0 01-2.17-5.28 4.73 4.73 0 014.56-3.48 4.68 4.68 0 014.52 3.48 4.73 4.73 0 01-2.22 5.29v1.69l-1.48 1 1.37 1.37-1.37 1.1 1.09 1.37-1.1 1.1 1.1 1.1v1.1l-2 1.93z" clip-rule="evenodd" fill="#fff"/></clipPath><clipPath id="clip-path-2"><path class="cls-2" transform="rotate(-89.84 602.985 220.352)" d="M376.6-58.18h452.78v557.05H376.6z"/></clipPath><style>.cls-2{fill:#fff}.cls-4{fill:#212b36}.cls-5{fill:#919eab}.cls-6{fill:#454f5b}.cls-7{fill:#6554c0}.cls-10{fill:#43a0ff}.cls-12{fill:#ffc95c}.cls-13{fill:#ef7559}.cls-20,.cls-23{fill:none;stroke-linecap:round;stroke-miterlimit:10}.cls-20{stroke:#fff;stroke-width:1.01px}.cls-21{fill:#c4cdd5}.cls-22{fill:#dfe3e8}.cls-23{stroke:#43a0ff;stroke-width:1.45px}</style></defs><g style="isolation:isolate"><g id="Layer_1" data-name="Layer 1"><path class="cls-4" d="M-10-12h1059v412H-10z"/><path class="cls-5" d="M234.48 382.43H804.7v9.27H234.48z"/><path class="cls-6" d="M301.34 74.37h436.5a11.89 11.89 0 0111.89 11.89v296.17H289.45V86.27a11.89 11.89 0 0111.89-11.9z"/><path class="cls-7" d="M297.82 84.49h441.59v281.47H297.82z"/><path d="M521.92 391.7H234.48s7.09 8.3 51.87 8.3h466.47c44.78 0 51.88-8.3 51.88-8.3z" fill="#58616b"/><path d="M479 382.43a6.1 6.1 0 006.1 6.1h67.1a6.1 6.1 0 006.1-6.1H479z" fill="#627382"/><path class="cls-10" d="M739.41 95.54v130c0-1.92-343.2-18.57-343.2-18.57L298 95.65z"/><path class="cls-2" d="M407.31 214.84c30.53 73.09 67.53 20.36 150.79 13S739.41 262 739.41 262v-52.71s-17.21 2.57-31.21-9.43c-23.72-20.33-48.09-20.77-131.6-6.29-116 20.1-78.63 31.45-143.39-14.8s-56.43-37.01-25.9 36.07z"/><path d="M297.82 214.72s49.16-1.58 64.89 47.44c24.19 75.42 104.53 98.06 187.79 90.66 53.15-4.72 76.78-3.7 119.33 12.95l69.58.2-.2-48.3s-31.45-30.53-148.94-37.93S485.74 220.54 421 174.28s-123.17-57-123.17-57z" style="mix-blend-mode:overlay" fill="#ef7457" opacity=".65"/><path class="cls-12" d="M298 123.4s57.36-27.75 87.88 45.33 88.76 113.79 172.02 106.39 181.5 34.72 181.5 34.72v-59.55S716.08 206.66 583.8 215c-117.49 7.39-98.06 5.55-162.81-40.71A1446.06 1446.06 0 00298 95.65z"/><path class="cls-13" d="M297.82 132.62s57.49 19.46 88 92.54S495.42 295 579 295c81 0 160.37 61.72 160.37 61.72v-62.91S725.93 273.1 693 271c-47-3-43.93-24.9-78-27-81-5-80.8-35.05-85-51-15-57-58.51 4-105.31-60.35-37-50.87-126.87-45.43-126.87-45.43z"/><path class="cls-4" d="M297.82 84.49h441.59v11.04H297.82z"/><path d="M373.12 329.62h291a7.14 7.14 0 017.14 7.14V366H366v-29.25a7.14 7.14 0 017.12-7.13z" opacity=".23" fill="#fff"/><rect class="cls-10" x="373.91" y="337.37" width="21.26" height="21.26" rx="2.57"/><path class="cls-2" d="M384.54 337.37s-5.18 10.06 0 11.67c3.63 1.13.87 9.4.87 9.4l7.24.19a2.52 2.52 0 002.52-2.52v-16.22a2.52 2.52 0 00-2.52-2.52z"/><path class="cls-7" d="M441.02 335.67h24.67v24.67h-24.67z"/><rect class="cls-6" x="404.31" y="335.67" width="24.67" height="24.67" rx="5.65"/><path class="cls-10" transform="rotate(-11.72 486.034 347.872)" d="M477.78 337.06h16.9v21.89h-16.9z"/><rect class="cls-4" x="508.25" y="335.67" width="24.67" height="24.67" rx="9.24"/><circle class="cls-12" cx="554.83" cy="348" r="12.18"/><rect class="cls-7" x="572.87" y="335.67" width="24.67" height="24.67" rx="9.24"/><circle class="cls-2" cx="618.26" cy="348" r="13.3"/><circle cx="618.26" cy="348" r="10.57" fill="#0489ff"/><circle class="cls-2" cx="618.26" cy="348" r="7.65"/><path class="cls-4" transform="rotate(-.25 627.196 352.02)" d="M616.89 343.82h2.73v8.36h-2.73z"/><circle class="cls-10" cx="650.37" cy="348" r="12.51"/><rect class="cls-4" x="316.42" y="143.09" width="262.45" height="158.28" rx="6.7"/><circle class="cls-13" cx="325.17" cy="151.17" r="3.8"/><circle class="cls-12" cx="337.23" cy="151.17" r="3.8"/><circle class="cls-10" cx="349.09" cy="151.17" r="3.8"/><rect class="cls-2" x="382.27" y="177.34" width="130.88" height="25.87" rx="4.2"/><rect class="cls-2" x="383.03" y="214.62" width="130.88" height="25.87" rx="4.2"/><rect x="364.87" y="253.7" width="103.95" height="27.72" rx="7.21" fill="#9ca8b3"/><path d="M376.25 263.08a1.64 1.64 0 10-2.32 0 1.64 1.64 0 002.32 0zm-3.55 12.51v-9.45a4.67 4.67 0 01-2.17-5.28 4.73 4.73 0 014.56-3.48 4.68 4.68 0 014.52 3.48 4.73 4.73 0 01-2.22 5.29v1.69l-1.48 1 1.37 1.37-1.37 1.1 1.09 1.37-1.1 1.1 1.1 1.1v1.1l-2 1.93z" fill-rule="evenodd" fill="#fff"/><g clip-path="url(#clip-path)"><path class="cls-2" transform="rotate(-89.84 602.985 220.352)" d="M376.6-58.18h452.78v557.05H376.6z"/><g clip-path="url(#clip-path-2)"><path class="cls-2" transform="rotate(-44.84 375.08 266.672)" d="M364.36 256h21.42v21.35h-21.42z"/></g></g><path class="cls-20" d="M448.44 260.73a11.42 11.42 0 0111.86-.23M446 266a10.15 10.15 0 018.42-4.29 9.64 9.64 0 018.51 4.29"/><path class="cls-20" d="M447.48 275.57a10.21 10.21 0 010-6.69 7.18 7.18 0 017-4.67 6.7 6.7 0 017 4.59c1.62 4.42-.32 5.06-1.15 5.31-1 .29-2.76.26-3.36-2.82s-3.82-2.94-4.82-1 0 3.84.91 5 2.93 2.86 4.29 3.08"/><path class="cls-20" d="M454.3 271.3a6.31 6.31 0 002.19 4.12c2.21 1.63 3.81.94 3.81.94"/><path class="cls-20" d="M452.05 278.06a7.7 7.7 0 01-2.71-5.87c0-3.24 1.87-5.34 5-5.65s4.58 2.17 5.25 5.25"/><rect class="cls-21" x="403.68" y="49" width="286.33" height="175.42" rx="10.36"/><path class="cls-22" d="M403.68 101.06h286.33v23.77H403.68z"/><path class="cls-5" d="M403.68 112h286.33v1.64H403.68z"/><circle class="cls-2" cx="546.68" cy="110.09" r="34.8"/><circle class="cls-10" cx="546.68" cy="110.09" r="27.73"/><circle class="cls-2" cx="546.68" cy="110.09" r="19.81"/><path class="cls-23" d="M538.21 98.19a16.38 16.38 0 0117-.32M534.64 105.78s3.53-5.93 12.06-6.15a13.84 13.84 0 0112.2 6.15"/><path class="cls-23" d="M536.83 119.47a14.61 14.61 0 010-9.59c2-5.69 7.26-6.61 10-6.69 3.12-.09 7.92.67 10.09 6.58 2.32 6.34-.47 7.24-1.66 7.6-1.41.43-4 .38-4.81-4s-5.47-4.2-6.9-1.4 0 5.5 1.29 7.22 4.2 4.1 6.15 4.42"/><path class="cls-23" d="M546.61 113.35s.33 3.85 3.13 5.91c3.17 2.33 5.46 1.34 5.46 1.34"/><path class="cls-23" d="M543.38 123a11 11 0 01-3.88-8.41c0-4.64 2.68-7.65 7.11-8.09s6.55 3.11 7.51 7.52"/><rect class="cls-22" x="462.55" y="165.88" width="165.74" height="19.3" rx="9.65"/><path class="cls-22" d="M601.9 165.88h16.75a9.65 9.65 0 019.65 9.65 9.65 9.65 0 01-9.65 9.65H601.9v-19.3z"/><path class="cls-21" d="M618.83 175.34a.83.83 0 00-.77-.86h-.19v-.85a4.26 4.26 0 00-3.49-4.42 4 4 0 00-4.19 4.28v1H610a.82.82 0 00-.77.87v4.41a.84.84 0 00.8.88h8a.85.85 0 00.81-.9zm-7.23-1.7a2.71 2.71 0 012.28-2.86 2.55 2.55 0 012.57 2.68v1h-4.85z"/></g></g></svg>